<mxfile host="app.diagrams.net" modified="2024-02-06T14:12:53.075Z" agent="Mozilla/5.0 (Windows NT 10.0; Win64; x64) AppleWebKit/537.36 (KHTML, like Gecko) Chrome/121.0.0.0 Safari/537.36 Edg/121.0.0.0" etag="iSdaXTRaQcUs1-E6wDcZ" version="23.1.1" type="google">
  <diagram name="Pagina-1" id="PLYj5Iff4OlxgDRVhd9S">
    <mxGraphModel grid="1" page="1" gridSize="10" guides="1" tooltips="1" connect="1" arrows="1" fold="1" pageScale="1" pageWidth="827" pageHeight="1169" math="0" shadow="0">
      <root>
        <mxCell id="0" />
        <mxCell id="1" parent="0" />
        <mxCell id="rQTwXRvtt8RZK-iELBfH-16" value="" style="rounded=0;whiteSpace=wrap;html=1;fillStyle=auto;fillColor=default;strokeColor=default;" vertex="1" parent="1">
          <mxGeometry x="240" y="320" width="410" height="230" as="geometry" />
        </mxCell>
        <mxCell id="rQTwXRvtt8RZK-iELBfH-17" value="" style="rounded=1;whiteSpace=wrap;html=1;fontSize=16;fillColor=none;arcSize=5;" vertex="1" parent="1">
          <mxGeometry x="271" y="330" width="369" height="210" as="geometry" />
        </mxCell>
        <mxCell id="rQTwXRvtt8RZK-iELBfH-22" value="&lt;font style=&quot;font-size: 12px;&quot;&gt;microRTPS&lt;br style=&quot;border-color: var(--border-color);&quot;&gt;agent&lt;br style=&quot;border-color: var(--border-color);&quot;&gt;#2&lt;/font&gt;" style="rounded=1;whiteSpace=wrap;html=1;fontSize=16;" vertex="1" parent="1">
          <mxGeometry x="415.5" y="375" width="70" height="60" as="geometry" />
        </mxCell>
        <mxCell id="rQTwXRvtt8RZK-iELBfH-24" value="&lt;font style=&quot;font-size: 12px;&quot;&gt;microRTPS&lt;br style=&quot;border-color: var(--border-color);&quot;&gt;agent&lt;br style=&quot;border-color: var(--border-color);&quot;&gt;#3&lt;/font&gt;" style="rounded=1;whiteSpace=wrap;html=1;fontSize=16;" vertex="1" parent="1">
          <mxGeometry x="551" y="375" width="70" height="60" as="geometry" />
        </mxCell>
        <mxCell id="rQTwXRvtt8RZK-iELBfH-25" value="ROS2" style="text;html=1;strokeColor=none;fillColor=none;align=center;verticalAlign=middle;whiteSpace=wrap;rounded=0;fontSize=16;direction=west;rotation=0;" vertex="1" parent="1">
          <mxGeometry x="355.5" y="330" width="60" height="30" as="geometry" />
        </mxCell>
        <mxCell id="rQTwXRvtt8RZK-iELBfH-26" value="Docker Container" style="text;html=1;strokeColor=none;fillColor=none;align=center;verticalAlign=middle;whiteSpace=wrap;rounded=0;fontSize=16;rotation=-90;" vertex="1" parent="1">
          <mxGeometry x="180" y="390" width="150" height="30" as="geometry" />
        </mxCell>
        <mxCell id="rQTwXRvtt8RZK-iELBfH-27" value="" style="endArrow=classic;startArrow=classic;html=1;rounded=0;fontSize=12;startSize=8;endSize=8;curved=1;exitX=0.5;exitY=1;exitDx=0;exitDy=0;" edge="1" parent="1" target="rQTwXRvtt8RZK-iELBfH-64">
          <mxGeometry width="50" height="50" relative="1" as="geometry">
            <mxPoint x="325" y="300" as="sourcePoint" />
            <mxPoint x="471" y="310" as="targetPoint" />
          </mxGeometry>
        </mxCell>
        <mxCell id="rQTwXRvtt8RZK-iELBfH-28" value="" style="endArrow=classic;startArrow=classic;html=1;rounded=0;fontSize=12;startSize=8;endSize=8;curved=1;exitX=0.5;exitY=1;exitDx=0;exitDy=0;" edge="1" parent="1" target="rQTwXRvtt8RZK-iELBfH-22">
          <mxGeometry width="50" height="50" relative="1" as="geometry">
            <mxPoint x="450" y="300" as="sourcePoint" />
            <mxPoint x="341" y="396" as="targetPoint" />
          </mxGeometry>
        </mxCell>
        <mxCell id="rQTwXRvtt8RZK-iELBfH-29" value="" style="endArrow=classic;startArrow=classic;html=1;rounded=0;fontSize=12;startSize=8;endSize=8;curved=1;exitX=0.5;exitY=1;exitDx=0;exitDy=0;" edge="1" parent="1" target="rQTwXRvtt8RZK-iELBfH-24">
          <mxGeometry width="50" height="50" relative="1" as="geometry">
            <mxPoint x="586" y="300" as="sourcePoint" />
            <mxPoint x="366" y="406" as="targetPoint" />
          </mxGeometry>
        </mxCell>
        <mxCell id="rQTwXRvtt8RZK-iELBfH-36" value="UDP&amp;nbsp;2020&lt;span style=&quot;background-color: transparent; color: rgb(255, 255, 255); font-family: source-code-pro, Menlo, Monaco, Consolas, &amp;quot;Courier New&amp;quot;, monospace; font-size: 0.85em; text-align: left;&quot;&gt;&lt;/span&gt;" style="text;html=1;strokeColor=none;fillColor=none;align=center;verticalAlign=middle;whiteSpace=wrap;rounded=0;fontSize=5;" vertex="1" parent="1">
          <mxGeometry x="290" y="360" width="30" height="15" as="geometry" />
        </mxCell>
        <mxCell id="rQTwXRvtt8RZK-iELBfH-37" value="UDP&amp;nbsp;2022&lt;span style=&quot;background-color: transparent; color: rgb(255, 255, 255); font-family: source-code-pro, Menlo, Monaco, Consolas, &amp;quot;Courier New&amp;quot;, monospace; font-size: 0.85em; text-align: left;&quot;&gt;&lt;/span&gt;" style="text;html=1;strokeColor=none;fillColor=none;align=center;verticalAlign=middle;whiteSpace=wrap;rounded=0;fontSize=5;" vertex="1" parent="1">
          <mxGeometry x="415.5" y="360" width="30" height="15" as="geometry" />
        </mxCell>
        <mxCell id="rQTwXRvtt8RZK-iELBfH-38" value="UDP&amp;nbsp;2024&lt;span style=&quot;background-color: transparent; color: rgb(255, 255, 255); font-family: source-code-pro, Menlo, Monaco, Consolas, &amp;quot;Courier New&amp;quot;, monospace; font-size: 0.85em; text-align: left;&quot;&gt;&lt;/span&gt;" style="text;html=1;strokeColor=none;fillColor=none;align=center;verticalAlign=middle;whiteSpace=wrap;rounded=0;fontSize=5;" vertex="1" parent="1">
          <mxGeometry x="551" y="360" width="30" height="15" as="geometry" />
        </mxCell>
        <mxCell id="rQTwXRvtt8RZK-iELBfH-39" value="UDP&amp;nbsp;2019&lt;span style=&quot;background-color: transparent; color: rgb(255, 255, 255); font-family: source-code-pro, Menlo, Monaco, Consolas, &amp;quot;Courier New&amp;quot;, monospace; font-size: 0.85em; text-align: left;&quot;&gt;&lt;/span&gt;" style="text;html=1;strokeColor=none;fillColor=none;align=center;verticalAlign=middle;whiteSpace=wrap;rounded=0;fontSize=5;" vertex="1" parent="1">
          <mxGeometry x="290" y="300" width="30" height="15" as="geometry" />
        </mxCell>
        <mxCell id="rQTwXRvtt8RZK-iELBfH-40" value="UDP&amp;nbsp;2021&lt;span style=&quot;background-color: transparent; color: rgb(255, 255, 255); font-family: source-code-pro, Menlo, Monaco, Consolas, &amp;quot;Courier New&amp;quot;, monospace; font-size: 0.85em; text-align: left;&quot;&gt;&lt;/span&gt;" style="text;html=1;strokeColor=none;fillColor=none;align=center;verticalAlign=middle;whiteSpace=wrap;rounded=0;fontSize=5;" vertex="1" parent="1">
          <mxGeometry x="415" y="300" width="30" height="15" as="geometry" />
        </mxCell>
        <mxCell id="rQTwXRvtt8RZK-iELBfH-41" value="UDP&amp;nbsp;2023&lt;span style=&quot;background-color: transparent; color: rgb(255, 255, 255); font-family: source-code-pro, Menlo, Monaco, Consolas, &amp;quot;Courier New&amp;quot;, monospace; font-size: 0.85em; text-align: left;&quot;&gt;&lt;/span&gt;" style="text;html=1;strokeColor=none;fillColor=none;align=center;verticalAlign=middle;whiteSpace=wrap;rounded=0;fontSize=5;" vertex="1" parent="1">
          <mxGeometry x="551" y="300" width="30" height="15" as="geometry" />
        </mxCell>
        <mxCell id="rQTwXRvtt8RZK-iELBfH-51" value="&lt;span style=&quot;font-size: 12px;&quot;&gt;PX4 ROS API&lt;br&gt;&lt;/span&gt;" style="rounded=1;whiteSpace=wrap;html=1;fontSize=16;" vertex="1" parent="1">
          <mxGeometry x="290" y="464" width="70" height="60" as="geometry" />
        </mxCell>
        <mxCell id="rQTwXRvtt8RZK-iELBfH-52" value="&lt;font style=&quot;font-size: 12px;&quot;&gt;PX4 ROS API&lt;/font&gt;&lt;span style=&quot;font-size: 12px;&quot;&gt;&lt;br&gt;&lt;/span&gt;" style="rounded=1;whiteSpace=wrap;html=1;fontSize=16;" vertex="1" parent="1">
          <mxGeometry x="415" y="464" width="70" height="60" as="geometry" />
        </mxCell>
        <mxCell id="rQTwXRvtt8RZK-iELBfH-53" value="&lt;font style=&quot;font-size: 12px;&quot;&gt;PX4 ROS API&lt;/font&gt;&lt;span style=&quot;font-size: 12px;&quot;&gt;&lt;br&gt;&lt;/span&gt;" style="rounded=1;whiteSpace=wrap;html=1;fontSize=16;" vertex="1" parent="1">
          <mxGeometry x="551" y="464" width="70" height="60" as="geometry" />
        </mxCell>
        <mxCell id="rQTwXRvtt8RZK-iELBfH-54" value="" style="endArrow=classic;startArrow=classic;html=1;rounded=0;fontSize=12;startSize=8;endSize=8;curved=1;exitX=0.5;exitY=1;exitDx=0;exitDy=0;entryX=0.5;entryY=0;entryDx=0;entryDy=0;endFill=1;" edge="1" parent="1" source="rQTwXRvtt8RZK-iELBfH-64" target="rQTwXRvtt8RZK-iELBfH-51">
          <mxGeometry width="50" height="50" relative="1" as="geometry">
            <mxPoint x="324.74" y="426" as="sourcePoint" />
            <mxPoint x="324.74" y="492" as="targetPoint" />
            <Array as="points">
              <mxPoint x="325" y="440" />
            </Array>
          </mxGeometry>
        </mxCell>
        <mxCell id="rQTwXRvtt8RZK-iELBfH-55" value="" style="endArrow=classic;startArrow=classic;html=1;rounded=0;fontSize=12;startSize=8;endSize=8;curved=1;entryX=0.5;entryY=1;entryDx=0;entryDy=0;exitX=0.5;exitY=0;exitDx=0;exitDy=0;startFill=1;endFill=1;" edge="1" parent="1" source="rQTwXRvtt8RZK-iELBfH-52" target="rQTwXRvtt8RZK-iELBfH-22">
          <mxGeometry width="50" height="50" relative="1" as="geometry">
            <mxPoint x="407" y="460" as="sourcePoint" />
            <mxPoint x="457" y="410" as="targetPoint" />
          </mxGeometry>
        </mxCell>
        <mxCell id="rQTwXRvtt8RZK-iELBfH-56" value="" style="endArrow=classic;startArrow=classic;html=1;rounded=0;fontSize=12;startSize=8;endSize=8;curved=1;entryX=0.5;entryY=1;entryDx=0;entryDy=0;exitX=0.5;exitY=0;exitDx=0;exitDy=0;startFill=1;endFill=1;" edge="1" parent="1" source="rQTwXRvtt8RZK-iELBfH-53" target="rQTwXRvtt8RZK-iELBfH-24">
          <mxGeometry width="50" height="50" relative="1" as="geometry">
            <mxPoint x="422" y="460" as="sourcePoint" />
            <mxPoint x="472" y="410" as="targetPoint" />
          </mxGeometry>
        </mxCell>
        <mxCell id="rQTwXRvtt8RZK-iELBfH-61" value="" style="endArrow=classic;startArrow=none;html=1;rounded=0;fontSize=12;startSize=8;endSize=8;curved=1;entryX=0.5;entryY=1;entryDx=0;entryDy=0;exitX=0.5;exitY=0;exitDx=0;exitDy=0;startFill=0;" edge="1" parent="1" target="rQTwXRvtt8RZK-iELBfH-51">
          <mxGeometry width="50" height="50" relative="1" as="geometry">
            <mxPoint x="325" y="560" as="sourcePoint" />
            <mxPoint x="301" y="480" as="targetPoint" />
          </mxGeometry>
        </mxCell>
        <mxCell id="rQTwXRvtt8RZK-iELBfH-62" value="" style="endArrow=classic;html=1;rounded=0;fontSize=12;startSize=8;endSize=8;curved=1;entryX=0.5;entryY=1;entryDx=0;entryDy=0;" edge="1" parent="1" target="rQTwXRvtt8RZK-iELBfH-53">
          <mxGeometry width="50" height="50" relative="1" as="geometry">
            <mxPoint x="586" y="560" as="sourcePoint" />
            <mxPoint x="232" y="510" as="targetPoint" />
          </mxGeometry>
        </mxCell>
        <mxCell id="rQTwXRvtt8RZK-iELBfH-63" value="" style="endArrow=classic;startArrow=none;html=1;rounded=0;fontSize=12;startSize=8;endSize=8;curved=1;exitX=0.5;exitY=0;exitDx=0;exitDy=0;startFill=0;entryX=0.5;entryY=1;entryDx=0;entryDy=0;" edge="1" parent="1" target="rQTwXRvtt8RZK-iELBfH-52">
          <mxGeometry width="50" height="50" relative="1" as="geometry">
            <mxPoint x="450.5" y="560" as="sourcePoint" />
            <mxPoint x="341" y="530" as="targetPoint" />
          </mxGeometry>
        </mxCell>
        <mxCell id="rQTwXRvtt8RZK-iELBfH-64" value="&lt;font style=&quot;font-size: 12px;&quot;&gt;microRTPS&lt;br&gt;agent&lt;br&gt;#1&lt;/font&gt;" style="rounded=1;whiteSpace=wrap;html=1;fontSize=16;" vertex="1" parent="1">
          <mxGeometry x="290" y="375" width="70" height="60" as="geometry" />
        </mxCell>
      </root>
    </mxGraphModel>
  </diagram>
</mxfile>
